<svg width="50" height="50" viewBox="0 0 50 50" fill="none" xmlns="http://www.w3.org/2000/svg">
<path d="M6.25 18.8688V34.375C6.25 36.0326 6.90848 37.6223 8.08058 38.7944C9.25268 39.9665 10.8424 40.625 12.5 40.625H37.5C39.1576 40.625 40.7473 39.9665 41.9194 38.7944C43.0915 37.6223 43.75 36.0326 43.75 34.375V15.625C43.75 13.9674 43.0915 12.3777 41.9194 11.2056C40.7473 10.0335 39.1576 9.375 37.5 9.375H12.5C10.8424 9.375 9.25268 10.0335 8.08058 11.2056C6.90848 12.3777 6.25 13.9674 6.25 15.625V18.8688ZM12.5 12.5H37.5C38.3288 12.5 39.1237 12.8292 39.7097 13.4153C40.2958 14.0013 40.625 14.7962 40.625 15.625V17.9375L25 26.35L9.375 17.9375V15.625C9.375 14.7962 9.70424 14.0013 10.2903 13.4153C10.8763 12.8292 11.6712 12.5 12.5 12.5ZM9.375 21.4875L24.2594 29.5C24.487 29.6225 24.7415 29.6867 25 29.6867C25.2585 29.6867 25.513 29.6225 25.7406 29.5L40.625 21.4875V34.375C40.625 35.2038 40.2958 35.9987 39.7097 36.5847C39.1237 37.1708 38.3288 37.5 37.5 37.5H12.5C11.6712 37.5 10.8763 37.1708 10.2903 36.5847C9.70424 35.9987 9.375 35.2038 9.375 34.375V21.4875Z" fill="#4D4D4D"/>
</svg>
